<svg width="73" height="98" xmlns="http://www.w3.org/2000/svg" xmlns:xlink="http://www.w3.org/1999/xlink" xml:space="preserve" overflow="hidden"><defs><filter id="fx0" x="-10%" y="-10%" width="120%" height="120%" filterUnits="userSpaceOnUse" primitiveUnits="userSpaceOnUse"><feComponentTransfer color-interpolation-filters="sRGB"><feFuncR type="discrete" tableValues="0 0"/><feFuncG type="discrete" tableValues="0 0"/><feFuncB type="discrete" tableValues="0 0"/><feFuncA type="linear" slope="0.4" intercept="0"/></feComponentTransfer><feGaussianBlur stdDeviation="6.11111 6.11111"/></filter><clipPath id="clip1"><rect x="1668" y="981" width="73" height="98"/></clipPath><clipPath id="clip2"><path d="M1688.5 1014.92C1690.31 1015.82 1692.36 1016.39 1694.5 1016.39 1696.64 1016.39 1698.69 1015.82 1700.5 1014.92L1708.95 1041.14C1708.79 1043.93 1702.88 1047.04 1694.5 1047.04 1686.12 1047.04 1680.21 1043.93 1680.05 1041.14ZM1684.65 1007.05 1686.04 1007.05C1686.78 1007.63 1687.6 1008.04 1688.59 1008.36 1689.16 1008.53 1689.82 1008.61 1690.39 1008.61 1691.22 1008.61 1691.95 1008.45 1692.61 1008.2 1693.27 1007.95 1693.84 1007.54 1694.34 1007.05L1694.66 1007.05C1695.57 1008.04 1696.96 1008.61 1698.52 1008.61 1699.1 1008.61 1699.76 1008.53 1700.41 1008.36 1701.4 1008.12 1702.3 1007.63 1702.96 1007.05L1704.36 1007.05C1702.88 1011.07 1699.02 1013.85 1694.42 1013.85 1689.82 1013.85 1686.12 1011.07 1684.65 1007.05ZM1701.12 1003.11C1701.75 1003.1 1702.26 1003.16 1702.47 1003.28 1702.63 1004.27 1701.48 1005.5 1699.84 1005.99 1698.2 1006.4 1696.55 1005.91 1696.22 1004.92 1696.47 1004.51 1697.87 1003.69 1699.1 1003.37 1699.76 1003.2 1700.5 1003.12 1701.12 1003.11ZM1687.87 1003.03C1688.48 1003.04 1689.2 1003.12 1689.82 1003.28 1691.22 1003.69 1692.69 1004.43 1692.86 1004.84 1692.69 1005.41 1692.12 1005.74 1691.71 1005.91 1690.97 1006.15 1690.07 1006.23 1689.16 1005.99 1687.52 1005.58 1686.29 1004.27 1686.53 1003.2 1686.74 1003.08 1687.25 1003.02 1687.87 1003.03ZM1694.5 992.958C1699.26 992.958 1703.37 996.154 1704.6 1000.5L1684.4 1000.5C1685.63 996.154 1689.74 992.958 1694.5 992.958ZM1694.5 990.5C1687.36 990.5 1681.44 996.318 1681.44 1003.45 1681.44 1007.54 1683.33 1011.15 1686.29 1013.53L1677.58 1040.57C1677.58 1040.65 1677.5 1040.81 1677.5 1040.98 1677.5 1045.73 1684.97 1049.5 1694.5 1049.5 1704.03 1049.5 1711.5 1045.73 1711.5 1040.98 1711.5 1040.81 1711.42 1040.73 1711.42 1040.57L1702.63 1013.53C1705.59 1011.15 1707.48 1007.54 1707.48 1003.45 1707.56 996.318 1701.73 990.5 1694.5 990.5ZM1668 981 1741 981 1741 1079 1668 1079Z" fill-rule="evenodd" clip-rule="evenodd"/></clipPath></defs><g clip-path="url(#clip1)" transform="translate(-1668 -981)"><g clip-path="url(#clip2)"><g filter="url(#fx0)" transform="translate(1667 980)"><g><path d="M54.1408 70.2907 45.3533 43.249C48.3098 40.8726 50.1988 37.267 50.1988 33.1698 50.2809 26.0406 44.45 20.2225 37.2229 20.2225 30.0779 20.2225 24.1648 26.0406 24.1648 33.1698 24.1648 37.267 26.0538 40.8726 29.0103 43.249L20.3049 70.2907C20.3049 70.3727 20.2228 70.5365 20.2228 70.7004 20.2228 75.4532 27.6963 79.2227 37.2229 79.2227 46.7495 79.2227 54.2229 75.4532 54.2229 70.7004 54.2229 70.5365 54.1408 70.4546 54.1408 70.2907ZM37.2229 22.6809C41.9862 22.6809 46.0925 25.8768 47.3243 30.2198L27.1214 30.2198C28.3533 25.8768 32.4596 22.6809 37.2229 22.6809ZM42.561 35.7101C40.9185 36.1198 39.276 35.6281 38.9475 34.6448 39.1939 34.2351 40.59 33.4157 41.8219 33.0879 43.1359 32.7601 44.7785 32.7601 45.189 33.0059 45.3533 33.9892 44.2035 35.2184 42.561 35.7101ZM35.5804 34.5629C35.4161 35.1365 34.8412 35.4642 34.4306 35.6281 33.6914 35.8739 32.7881 35.9559 31.8847 35.7101 30.2421 35.3003 29.0103 33.9892 29.2566 32.924 29.6673 32.6781 31.3098 32.6781 32.5417 33.0059 33.9378 33.4157 35.4161 34.1531 35.5804 34.5629ZM27.3678 36.7753 28.7639 36.7753C29.503 37.349 30.3242 37.7587 31.3098 38.0865 31.8847 38.2504 32.5417 38.3323 33.1166 38.3323 33.9378 38.3323 34.6769 38.1684 35.3339 37.9226 35.9909 37.6768 36.5659 37.267 37.0586 36.7753L37.3871 36.7753C38.2905 37.7587 39.6867 38.3323 41.247 38.3323 41.8219 38.3323 42.4789 38.2504 43.1359 38.0865 44.1215 37.8407 45.0248 37.349 45.6818 36.7753L47.078 36.7753C45.5997 40.7906 41.7398 43.5768 37.1407 43.5768 32.5417 43.5768 28.846 40.7906 27.3678 36.7753ZM37.2229 76.7643C28.846 76.7643 22.9329 73.6504 22.7687 70.8643L31.2276 44.642C33.0344 45.5435 35.0876 46.117 37.2229 46.117 39.3582 46.117 41.4113 45.5435 43.218 44.642L51.677 70.8643C51.5128 73.6504 45.5997 76.7643 37.2229 76.7643Z" stroke="#000000" stroke-miterlimit="8" fill-rule="evenodd"/></g></g></g><path d="M1711.42 1040.57 1702.63 1013.53C1705.59 1011.15 1707.48 1007.54 1707.48 1003.45 1707.56 996.318 1701.73 990.5 1694.5 990.5 1687.36 990.5 1681.44 996.318 1681.44 1003.45 1681.44 1007.54 1683.33 1011.15 1686.29 1013.53L1677.58 1040.57C1677.58 1040.65 1677.5 1040.81 1677.5 1040.98 1677.5 1045.73 1684.97 1049.5 1694.5 1049.5 1704.03 1049.5 1711.5 1045.73 1711.5 1040.98 1711.5 1040.81 1711.42 1040.73 1711.42 1040.57ZM1694.5 992.958C1699.26 992.958 1703.37 996.154 1704.6 1000.5L1684.4 1000.5C1685.63 996.154 1689.74 992.958 1694.5 992.958ZM1699.84 1005.99C1698.2 1006.4 1696.55 1005.91 1696.22 1004.92 1696.47 1004.51 1697.87 1003.69 1699.1 1003.37 1700.41 1003.04 1702.06 1003.04 1702.47 1003.28 1702.63 1004.27 1701.48 1005.5 1699.84 1005.99ZM1692.86 1004.84C1692.69 1005.41 1692.12 1005.74 1691.71 1005.91 1690.97 1006.15 1690.07 1006.23 1689.16 1005.99 1687.52 1005.58 1686.29 1004.27 1686.53 1003.2 1686.94 1002.96 1688.59 1002.96 1689.82 1003.28 1691.22 1003.69 1692.69 1004.43 1692.86 1004.84ZM1684.65 1007.05 1686.04 1007.05C1686.78 1007.63 1687.6 1008.04 1688.59 1008.36 1689.16 1008.53 1689.82 1008.61 1690.39 1008.61 1691.22 1008.61 1691.95 1008.45 1692.61 1008.2 1693.27 1007.95 1693.84 1007.54 1694.34 1007.05L1694.66 1007.05C1695.57 1008.04 1696.96 1008.61 1698.52 1008.61 1699.1 1008.61 1699.76 1008.53 1700.41 1008.36 1701.4 1008.12 1702.3 1007.63 1702.96 1007.05L1704.36 1007.05C1702.88 1011.07 1699.02 1013.85 1694.42 1013.85 1689.82 1013.85 1686.12 1011.07 1684.65 1007.05ZM1694.5 1047.04C1686.12 1047.04 1680.21 1043.93 1680.05 1041.14L1688.5 1014.92C1690.31 1015.82 1692.36 1016.39 1694.5 1016.39 1696.64 1016.39 1698.69 1015.82 1700.5 1014.92L1708.95 1041.14C1708.79 1043.93 1702.88 1047.04 1694.5 1047.04Z" stroke="#000000" stroke-width="1.14583" stroke-miterlimit="8" fill-rule="evenodd"/></g></svg>